<?xml version="1.0" encoding="utf-8"?>
<!-- Generator: Adobe Illustrator 23.1.0, SVG Export Plug-In . SVG Version: 6.00 Build 0)  -->
<svg version="1.1" id="Layer_1" xmlns="http://www.w3.org/2000/svg" xmlns:xlink="http://www.w3.org/1999/xlink" x="0px" y="0px"
	 viewBox="0 0 1030 115" style="enable-background:new 0 0 1030 115;" xml:space="preserve">
<style type="text/css">
	.st0{fill:#FFFFFF;}
</style>
<g>
	<path class="st0" d="M77.2,21.6c2.7-6.6,5.5-13.3,8.2-19.9h7.2c2.6,7.4,5.1,14.5,7.9,21.4l21.9,54.7h0.3l15.4-60.3
		c0.5-1.9,0.6-3.4,0.6-5.3c0-1.9-2.9-3.1-5.6-3.2l-7.4-0.5V2.5C133,2.7,138.6,3,143.1,3c4.3,0,10-0.3,17.4-0.5v5.9l-5.3,0.5
		c-2.9,0.3-5,4.3-6.9,11.1l-19.6,69.5c-2.1,7.6-3.5,15.3-5.3,23h-11.7c-2.1-5.6-3.9-11.3-6.1-16.9l-24-60.3L56.6,92.4
		c-2.9,6.6-5,13.3-7.6,20.1H37.8L15.5,15.7C14.3,11,12.4,9.3,9.5,9L4.4,8.5V2.5C15,2.7,23.2,3,29.5,3C35.7,3,43.8,2.7,51,2.5v5.9
		L44.3,9c-2.1,0.1-4.8,1.9-4.8,3.7c0,1.1,0.1,2.7,0.5,4.5l13,61.1h0.3L77.2,21.6z"/>
	<path class="st0" d="M205.1,90.3c0,6.8,0.2,11.1,1.1,13c0.6,1.3,2.4,1.9,6.6,2.3l6,0.5v6.5c-6.6-0.2-15.4-0.5-24.9-0.5
		c-9.6,0-18.5,0.3-25.1,0.5v-6.5l6-0.5c4.2-0.3,5.9-1,6.6-2.3c1-1.9,1.1-6.3,1.1-13V24.7c0-6.8-0.2-11.1-1.1-13
		c-0.6-1.3-2.4-1.9-6.6-2.3l-6-0.5V2.5c6.6,0.1,15.4,0.5,25.1,0.5c9.5,0,18.3-0.3,24.9-0.5v6.4l-6,0.5c-4.2,0.3-6,1-6.6,2.3
		c-1,1.9-1.1,6.3-1.1,13V90.3z"/>
	<path class="st0" d="M267.6,102.7c6.8,0.3,13.7,0.5,20.6,0.5c7.4,0,19.3-1.5,19.6-2.7l3.7-16.4h6.3l-1.8,26.7l-0.8,1.3
		c-6.4,0.5-15.9,0.6-24.6,0.6c-5.6,0-10.9,0-15-0.1c-6.6-0.2-13.2-0.5-19.8-0.5c-6.8,0-13.3,0.3-19.3,0.5v-3.7l5.1-2.9
		c2.6-1.4,3.2-4.2,3.2-9.2V24.7c0-6.8-0.2-11.1-1.1-13c-0.6-1.3-2.4-1.9-6.6-2.3l-6-0.5V2.5c6.6,0.1,15.4,0.5,25.1,0.5
		c9.5,0,18.3-0.3,24.9-0.5V9l-6,0.5c-4.2,0.3-5.9,1-6.6,2.3c-1,1.9-1.1,6.3-1.1,13L267.6,102.7L267.6,102.7z"/>
	<path class="st0" d="M342.6,24.7c0-6.8-0.2-11.1-1.1-13c-0.8-1.6-2.4-2.4-6.6-2.7l-5.9-0.5V2.5C339.5,2.7,347.8,3,354,3
		c10.5,0,27.2-0.5,41.3-0.5c34.6,0,54.4,14.1,54.4,50.2c0,38.3-31.5,59.8-65.5,59.8h-1.4c-8-0.2-15.9-0.5-24-0.5
		c-8,0-15.9,0.3-24.6,0.5v-3.7l5.1-2.9c2.6-1.4,3.2-4.2,3.2-9.2L342.6,24.7L342.6,24.7z M365.3,102.8c4.7,0.8,9.3,0.8,13.8,0.8
		c32,0,46.5-15.8,46.5-47.9c0-31.8-13.8-45.2-50.5-45.2c-3.2,0-6.4,0.2-9.8,0.6L365.3,102.8L365.3,102.8z"/>
	<path class="st0" d="M565,105.9c-11.1,6.8-24.1,8.8-37,8.8c-36.7,0-63.7-20.6-63.7-59c0-37,30.1-55.5,64.3-55.5
		c13.2,0,24,1.1,39.4,7.5l0.9,1.8c-1.6,5.8-2.9,17.7-3.7,24.6h-6.3l-0.8-13.8c-7.9-8.2-18-11.1-29-11.1c-26.7,0-40.8,19-40.8,44.4
		c0,29.4,17,50.6,47.4,50.6c9.5,0,22.5-3.4,30.7-8.2l1.9,1.9L565,105.9z"/>
	<path class="st0" d="M615.5,50.1c2.4,0.1,5.5,0.3,13,0.3H652c7.6,0,10.6-0.2,13-0.3V24.7c0-6.8-0.2-11.1-1.1-13
		c-0.6-1.3-2.4-1.9-6.6-2.3l-5.9-0.5V2.5C658,2.7,666.8,3,676.5,3c9.5,0,18.3-0.3,24.9-0.5v6.4l-5.9,0.5c-4.2,0.3-5.9,1-6.6,2.3
		c-1,1.9-1.1,6.3-1.1,13v65.6c0,6.8,0.2,11.1,1.1,13c0.6,1.3,2.4,1.9,6.6,2.3l5.9,0.5v6.5c-6.6-0.2-15.4-0.5-24.9-0.5
		c-9.6,0-18.5,0.3-25.1,0.5v-6.5l5.9-0.5c4.2-0.3,5.9-1,6.6-2.3c1-1.9,1.1-6.3,1.1-13V59.8c-2.4-0.2-5.5-0.3-13-0.3h-23.5
		c-7.6,0-10.6,0.2-13,0.3v30.6c0,6.8,0.2,11.1,1.1,13c0.6,1.3,2.4,1.9,6.6,2.3l6,0.5v6.5c-6.6-0.2-15.4-0.5-24.9-0.5
		c-9.7,0-18.5,0.3-25.1,0.5v-6.5l6-0.5c4.2-0.3,5.9-1,6.6-2.3c1-1.9,1.1-6.3,1.1-13V24.7c0-6.8-0.2-11.1-1.1-13
		c-0.6-1.3-2.4-1.9-6.6-2.3l-6-0.5V2.5c6.6,0.1,15.4,0.5,25.1,0.5c9.5,0,18.3-0.3,24.9-0.5v6.4l-6,0.5c-4.2,0.3-5.9,1-6.6,2.3
		c-1,1.9-1.1,6.3-1.1,13V50.1z"/>
	<path class="st0" d="M750,90.3c0,6.8,0.2,11.1,1.1,13c0.6,1.3,2.4,1.9,6.6,2.3l5.9,0.5v6.5c-6.6-0.2-15.4-0.5-24.9-0.5
		c-9.7,0-18.5,0.3-25.1,0.5v-6.5l5.9-0.5c4.2-0.3,6-1,6.6-2.3c1-1.9,1.1-6.3,1.1-13V24.7c0-6.8-0.2-11.1-1.1-13
		c-0.6-1.3-2.4-1.9-6.6-2.3l-5.9-0.5V2.5c6.6,0.1,15.4,0.5,25.1,0.5c9.5,0,18.3-0.3,24.9-0.5v6.4l-5.9,0.5c-4.2,0.3-5.9,1-6.6,2.3
		c-1,1.9-1.1,6.3-1.1,13V90.3z"/>
	<path class="st0" d="M789.2,24.7c0-6.8-0.1-11.1-1.1-13c-0.8-1.6-2.4-2.4-6.6-2.7l-5.9-0.5V2.5C782,2.7,788.4,3,794.8,3
		c4.5,0,9-0.3,13.5-0.5c5.5,7.1,10.8,14.6,16.6,21.4l50.2,58.5V24.7c0-6.8-0.2-11.1-1.1-13c-0.8-1.6-2.4-2.4-6.6-2.7l-5.9-0.5V2.5
		c6.1,0.1,12.4,0.5,18.5,0.5s12.2-0.3,18.3-0.5v5.9l-5.9,0.5c-4.2,0.3-5.8,1.1-6.6,2.7c-1,1.9-1.1,6.3-1.1,13v73
		c0,5.6,0.3,11.4,0.5,16.2l-1.1,0.6l-13.2-2.1c-6.6-7.4-13.4-15-19.6-22.4L799,27.4h-0.3v62.9c0,6.8,0.2,11.1,1.1,13
		c0.8,1.6,2.4,2.4,6.6,2.7l6,0.5v6c-6.1-0.2-12.2-0.5-18.3-0.5c-6.1,0-12.4,0.3-18.5,0.5v-6l5.9-0.5c4.2-0.3,5.8-1.1,6.6-2.7
		c1-1.9,1.1-6.3,1.1-13L789.2,24.7L789.2,24.7z"/>
	<path class="st0" d="M938.9,78.9l-6.8,18c-0.5,1.4-0.8,2.7-0.8,3.9c0,3.5,2.4,5.1,4.7,5.3l8,0.5v6c-7.7-0.2-13.5-0.5-18.2-0.5
		c-4.7,0-10.5,0.3-18.2,0.5v-6l4.8-0.5c4.2-0.5,7.1-5,9-9.6L950.7,26l9.2-24.3h11.4l41.7,97.3c1.8,4,3.9,6.4,8.8,7.1l3.9,0.5v6
		c-10.8-0.2-18.7-0.5-24.9-0.5c-6.3,0-14.3,0.3-24.9,0.5v-6l8.5-0.5c1.8-0.2,3.2-1.8,3.2-4.7c0-1.1-0.3-2.6-1-4.2l-7.3-18.3H938.9z
		 M942.8,69.9h32.8L958.9,29L942.8,69.9z"/>
</g>
</svg>
